<?xml version="1.0" standalone="no"?><!-- Generator: Gravit.io --><svg xmlns="http://www.w3.org/2000/svg" xmlns:xlink="http://www.w3.org/1999/xlink" style="isolation:isolate" viewBox="-1.452 -1 546.452 453.356" width="546.452" height="453.356"><g id="brain"><path d=" M 428.758 449.964 C 415.554 456.567 376.718 377.755 342.801 368.85 C 308.884 359.945 233.156 362.458 219.218 353.129 C 205.279 343.799 209.792 332.186 182.477 312.964 C 155.162 293.742 132.738 309.956 102.224 293.563 C 71.711 277.17 50.456 259.976 36.756 250.657 C 23.056 241.338 -17.67 205.323 9.937 148.655 C 37.545 91.987 35.967 89.558 65.152 66.891 C 94.336 44.224 106.168 28.033 150.34 19.128 C 194.511 10.223 226.772 -1.044 279.699 1.318 C 334.124 3.747 355.421 19.128 398.804 26.414 C 442.187 33.7 492.117 61.585 521.853 104.13 C 551.65 146.761 543.15 240.133 536.84 261.181 C 530.318 282.935 516.555 319.945 466.073 339.374 C 427.505 354.218 441.962 443.362 428.758 449.964 Z " fill-rule="evenodd" fill="none" vector-effect="non-scaling-stroke" stroke-width="1" stroke="rgb(0,0,0)" stroke-linejoin="miter" stroke-linecap="square" stroke-miterlimit="4"/></g></svg>
